# xmcd
#
# Track frame offsets:
# 150
# 21836
# 42759
# 60165
# 76201
# 97420
# 123113
# 146533
# 163745
# 184076
# 199678
# 214666
# 231903
#
# Disc length: 3375 seconds
#
#
# Revision: 2
# Processed by: cddbd v1.5.1PL0 Copyright (c) Steve Scherf et al.
# Submitted via: FreeRIP 2.30 
#
DISCID=ab0d2d0d
DTITLE=Coco Montoya - Can't Look Back
DYEAR=2002
DGENRE=Blues
TTITLE0=Wish I Could Be That Strong
TTITLE1=Running Away From Love
TTITLE2=Something About You
TTITLE3=I Won't Beg
TTITLE4=Trip, Stumble And Fall
TTITLE5=Can't See The Streets For My Tears
TTITLE6=Same Old Thing
TTITLE7=Can't Look Back
TTITLE8=Women Have A Way With A Fool
TTITLE9=Back In A Cadillac
TTITLE10=No Longer A Part of Your Dreams
TTITLE11=Holding Out For You
TTITLE12=Free
EXTD=YEAR: 2002 ID3G: 0\n
EXTT0=
EXTT1=
EXTT2=
EXTT3=
EXTT4=
EXTT5=
EXTT6=
EXTT7=
EXTT8=
EXTT9=
EXTT10=
EXTT11=
EXTT12=
PLAYORDER=
